Coordinates
nRows=6
nColumns=38

# SIMM Motion File Header:
name Coordinates
datacolumns 38
datarows 6
otherdata 1
range 1.07900000000000000000 1.08400000000000010000

Units are S.I. units (second, meters, Newtons, ...)
Angles are in degrees.

endheader
time	pelvis_tilt	pelvis_list	pelvis_rotation	pelvis_tx	pelvis_ty	pelvis_tz	hip_flexion_r	hip_adduction_r	hip_rotation_r	knee_angle_r	ankle_angle_r	subtalar_angle_r	mtp_angle_r	hip_flexion_l	hip_adduction_l	hip_rotation_l	knee_angle_l	ankle_angle_l	subtalar_angle_l	mtp_angle_l	lumbar_extension	lumbar_bending	lumbar_rotation	arm_flex_r	arm_add_r	arm_rot_r	elbow_flex_r	pro_sup_r	wrist_flex_r	wrist_dev_r	arm_flex_l	arm_add_l	arm_rot_l	elbow_flex_l	pro_sup_l	wrist_flex_l	wrist_dev_l
      1.07900000000000000000	     -2.92035501869105700000	      2.84556291812260030000	      0.46188352907233143000	      0.92800617843255651000	      1.03435688699401980000	     -0.32329603255664446000	     -9.42284640039818020000	      3.86791868714393420000	     -0.37909081397602495000	    -69.04622014540828400000	     -4.38923800576195690000	     -0.00000000000002884607	      0.00000000000008693711	     27.04008133788097400000	      7.71535414856505850000	      3.77345540333029610000	    -17.28585826097734900000	     -7.58967822127769320000	      0.00000000000002097041	     -0.00000000000001424635	     -5.54521371978539170000	     -2.73181612147644740000	      9.50927518838046560000	    -26.44280311501252000000	    -13.53849814529026000000	     -1.58707625307344170000	    122.65386507991479000000	     99.61204440500968400000	     -0.00000000000000324219	      0.00000000000002721223	    -41.71877658498518600000	    -10.88064344025155000000	     -9.87053437166098040000	    125.13346701667865000000	     88.82309194487534400000	      0.00000000000002677398	     -0.00000000000000116697
      1.08000000000000010000	     -2.91988628300211420000	      2.85271769942277590000	      0.50306763992770853000	      0.92789383966593275000	      1.03379281681076510000	     -0.32325892834529002000	     -9.14729500170000700000	      3.87501230461634450000	     -0.42125538389218115000	    -69.70210082584819100000	     -4.30307000608703930000	     -0.00000000000002905661	      0.00000000000008744400	     27.00010098613903200000	      7.76890874718637200000	      3.88185421936602280000	    -17.49058260416377300000	     -7.41750814551158390000	      0.00000000000002106568	     -0.00000000000001435495	     -5.56599349430608910000	     -2.77318472957447340000	      9.40540922148779580000	    -26.52290763602992000000	    -13.53105265710229200000	     -1.68650107906371780000	    122.43679964423393000000	     99.59273446225111600000	     -0.00000000000000323380	      0.00000000000002732594	    -41.58506121938210500000	    -10.95835550192566800000	     -9.82006717356762590000	    125.05195745325322000000	     88.85538763694943000000	      0.00000000000002686390	     -0.00000000000000114421
      1.08100000000000000000	     -2.92051526543296760000	      2.85835326658131180000	      0.54490052931441557000	      0.92777765838029902000	      1.03321860971444000000	     -0.32322470802870867000	     -8.86823914623508890000	      3.88278985504395190000	     -0.46457153021423542000	    -70.35654500670500500000	     -4.21684125723870820000	     -0.00000000000002927004	      0.00000000000008795285	     26.96268104963760200000	      7.82257606133136820000	      3.99509027198591890000	    -17.70692232350471300000	     -7.22726754116318480000	      0.00000000000002115986	     -0.00000000000001446829	     -5.58609392859446970000	     -2.81241219566571490000	      9.30022784973995260000	    -26.60261567887884500000	    -13.52409431374892900000	     -1.78728303181422830000	    122.21906241926115000000	     99.57119760232518500000	     -0.00000000000000322556	      0.00000000000002744033	    -41.44934224737025400000	    -11.03719472729795600000	     -9.76832684949643950000	    124.96875849605875000000	     88.88686912201070800000	      0.00000000000002695370	     -0.00000000000000112041
      1.08200000000000010000	     -2.92203543357837560000	      2.86262127339668780000	      0.58736063132921446000	      0.92765759679856097000	      1.03263469139594230000	     -0.32319347666272547000	     -8.58592437230661080000	      3.89100939751043960000	     -0.50910262602164580000	    -71.00946632411464100000	     -4.13044400297033040000	     -0.00000000000002948296	      0.00000000000008846070	     26.92758543075720100000	      7.87651838346795510000	      4.11269043773946040000	    -17.93475541410365500000	     -7.01855234764696160000	      0.00000000000002124859	     -0.00000000000001457988	     -5.60575312666941010000	     -2.84964605971664890000	      9.19371968515479840000	    -26.68187393695471600000	    -13.51762694361453000000	     -1.88941193722626990000	    122.00068140045278000000	     99.54750284516744300000	     -0.00000000000000321671	      0.00000000000002755551	    -41.31163006255646800000	    -11.11710817727391600000	     -9.71537288421684410000	    124.88388809944902000000	     88.91752981247442700000	      0.00000000000002704390	     -0.00000000000000109499
      1.08300000000000000000	     -2.92442723060543930000	      2.86564616993344940000	      0.63043010571622193000	      0.92753354934895949000	      1.03204120116294360000	     -0.32316533493888933000	     -8.30036837293460290000	      3.89946149252741180000	     -0.55489273777340831000	    -71.66083755947612100000	     -4.04377941040495960000	     -0.00000000000002969261	      0.00000000000008896639	     26.89481369015880600000	      7.93086863201483800000	      4.23416255457384060000	    -18.17401457371466800000	     -6.79108011322773560000	      0.00000000000002134057	     -0.00000000000001468927	     -5.62499869410962640000	     -2.88500687982182540000	      9.08588035340110170000	    -26.76065753244259700000	    -13.51165174869105500000	     -1.99287434136341070000	    121.78166985277763000000	     99.52173228358520900000	     -0.00000000000000320837	      0.00000000000002767148	    -41.17196109822725000000	    -11.19804051690803700000	     -9.66126633712058690000	    124.79735039319760000000	     88.94737199352745400000	      0.00000000000002713419	     -0.00000000000000106774
      1.08400000000000010000	     -2.92781077055335400000	      2.86752923560955430000	      0.67409287774573601000	      0.92740535576370586000	      1.03143806827158270000	     -0.32314037581191102000	     -8.01141887801712830000	      3.90796451844266060000	     -0.60196808187209039000	    -72.31067578962620200000	     -3.95676087533806080000	     -0.00000000000002990072	      0.00000000000008947145	     26.86454082471804800000	      7.98573484795302680000	      4.35900115247576190000	    -18.42467240191321700000	     -6.54465088372623070000	      0.00000000000002143420	     -0.00000000000001479797	     -5.64370231197613140000	     -2.91859322229060720000	      8.97671133251381730000	    -26.83896095770488400000	    -13.50616882037397400000	     -2.09765388631826920000	    121.56202872201213000000	     99.49397923235233100000	     -0.00000000000000319932	      0.00000000000002778740	    -41.03038901635372300000	    -11.27993466657906300000	     -9.60606939853400200000	    124.70913837100889000000	     88.97640613175327900000	      0.00000000000002722484	     -0.00000000000000104094
